<svg xmlns="http://www.w3.org/2000/svg" viewBox="0 0 64 80" x="0px" y="0px"><g><path  fill="#ED671E" d="M9,41h4.693l12.524,8.484L10.439,60.172A1,1,0,0,0,11,62h8a1,1,0,0,0,.561-.172L32,53.4l12.439,8.427A1,1,0,0,0,45,62h8a1,1,0,0,0,.561-1.828L37.783,49.484,50.307,41H55a5,5,0,0,0,2-9.576V5a3,3,0,0,0-3-3H52a3,3,0,0,0-3,3V7H15V5a3,3,0,0,0-3-3H10A3,3,0,0,0,7,5V31.424A5,5,0,0,0,9,41Zm9.693,19H14.259L28,50.692l2.217,1.5Zm26.614,0L17.259,41h4.434L49.741,60ZM25.259,41H38.741L32,45.566ZM36,48.276l-2.217-1.5L42.307,41h4.434ZM51,5a1,1,0,0,1,1-1h2a1,1,0,0,1,1,1V31H51ZM15,31V27H49v4ZM49,9V25H15V9ZM9,5a1,1,0,0,1,1-1h2a1,1,0,0,1,1,1V31H9ZM9,33H55a3,3,0,0,1,2.816,2H44a1,1,0,0,0,0,2H57.816A3,3,0,0,1,55,39H9a3,3,0,0,1-2.816-2H34a1,1,0,0,0,0-2H6.184A3,3,0,0,1,9,33Z"/><path  fill="#ED671E" d="M27.893,18.307l-.863,3.45A1,1,0,0,0,28.447,22.9L32,21.118,35.553,22.9a1,1,0,0,0,1.417-1.138l-.863-3.45,2.6-2.6A1,1,0,0,0,38,14H34.535l-1.7-2.555a1.039,1.039,0,0,0-1.664,0L29.465,14H26a1,1,0,0,0-.707,1.707ZM30,16a1,1,0,0,0,.832-.445L32,13.8l1.168,1.752A1,1,0,0,0,34,16h1.586l-1.293,1.293a1,1,0,0,0-.263.95l.473,1.89-2.056-1.028a1,1,0,0,0-.894,0L29.5,20.133l.473-1.89a1,1,0,0,0-.263-.95L28.414,16Z"/><path  fill="#ED671E" d="M38,37h2a1,1,0,0,0,0-2H38a1,1,0,0,0,0,2Z"/></g></svg>