<svg height='100px' width='100px'  fill="#000000" xmlns="http://www.w3.org/2000/svg" viewBox="0 0 50 50" x="0px" y="0px"><metadata><?xpacket begin="&#65279;" id="W5M0MpCehiHzreSzNTczkc9d"?><x:xmpmeta xmlns:x="adobe:ns:meta/" x:xmptk="Adobe XMP Core 5.6-c138 79.159824, 2016/09/14-01:09:01        "></x:xmpmeta><?xpacket end="w"?></metadata><defs><style>
      .cls-1 {
        fill-rule: evenodd;
      }
    </style></defs><path fill="#ED671E" class="cls-1" d="M32.74,20.657c3.1-2.228,7.659-5.508,8.38-15.208h0.44a2.419,2.419,0,0,0,2.433-2.4V2.4A2.419,2.419,0,0,0,41.56,0H9.438A2.419,2.419,0,0,0,7,2.4V3.045a2.419,2.419,0,0,0,2.433,2.4h1.078c0.721,9.7,5.277,12.979,8.38,15.208,2,1.434,3.038,2.254,3.038,3.789S20.892,26.8,18.9,28.234c-3.218,2.311-8,5.754-8.444,16.317H9.438A2.419,2.419,0,0,0,7,46.955V47.6A2.419,2.419,0,0,0,9.438,50H41.56a2.419,2.419,0,0,0,2.433-2.4V46.955a2.419,2.419,0,0,0-2.433-2.4H41.184C40.74,33.988,35.958,30.546,32.74,28.234c-2-1.434-3.038-2.254-3.038-3.789S30.744,22.091,32.74,20.657Zm-1.318,9.369c3.191,2.292,7.118,5.119,7.521,14.525H12.693c0.4-9.407,4.33-12.234,7.521-14.526,2.037-1.463,3.962-2.845,3.962-5.58s-1.924-4.116-3.962-5.58c-3.062-2.2-6.8-4.89-7.457-13.417H38.879c-0.653,8.528-4.4,11.218-7.457,13.417-2.037,1.463-3.962,2.845-3.962,5.58S29.384,28.562,31.422,30.025Zm4.058-17.08a27.827,27.827,0,0,0-9.819-1.727A27.947,27.947,0,0,0,16.1,12.847a15.161,15.161,0,0,0,4.885,4.97c2.11,1.516,4.5,3.234,4.5,6.628,0,0.025,0,.049,0,0.074h0.662c0-.025,0-0.049,0-0.074,0-3.395,2.392-5.113,4.5-6.628A15.261,15.261,0,0,0,35.48,12.945ZM14.141,42.759c-0.035.326-.066,0.658-0.091,1H37.585c-0.005-.076-0.013-0.147-0.018-0.221A13.1,13.1,0,0,0,14.141,42.759Z"></path></svg>