<svg xmlns:dc="http://purl.org/dc/elements/1.1/" xmlns:cc="http://creativecommons.org/ns#" xmlns:rdf="http://www.w3.org/1999/02/22-rdf-syntax-ns#" xmlns:svg="http://www.w3.org/2000/svg" xmlns="http://www.w3.org/2000/svg" xmlns:sodipodi="http://sodipodi.sourceforge.net/DTD/sodipodi-0.dtd" xmlns:inkscape="http://www.inkscape.org/namespaces/inkscape" version="1.1" x="0px" y="0px" viewBox="0 0 100 125"><g transform="translate(0,-952.36218)"><path style="color:#000000;enable-background:accumulate;fill:#ED671E;" d="m 8.9999998,959.36219 c -0.554,0 -1,0.446 -1,1.0001 l 0,6.0005 c 0,0.554 0.446,1 1,1 l 82.0000002,0 c 0.554,0 1,-0.446 1,-1 l 0,-6.0005 c 0,-0.5541 -0.446,-1.0001 -1,-1.0001 l -82.0000003,0 z M 15,969.36299 l 0,47.00371 c 0,0.5541 0.446,1.0001 1,1.0001 l 68,0 c 0.554,0 1,-0.446 1,-1.0001 l 0,-47.00371 -70,0 z m 35,8.0006 4.375,10.6571 11.625,0.8126 -8.9375,7.3756 2.8125,11.15711 -9.875,-6.0943 -9.875,6.0943 2.8125,-11.15711 L 34,988.83329 45.625,988.02069 50,977.36359 z m -2,42.00331 0,7.2194 -14.46875,15.4074 c -0.71178,0.7691 -0.68563,2.1123 0.0937,2.8128 0.79638,0.7157 1.96608,0.7974 2.84375,-0.094 L 48,1032.3992 l 0,6.9693 c 0,1.1047 0.89543,2.0002 2,2.0002 1.10457,0 2,-0.8955 2,-2.0002 l 0,-6.9693 11.53125,12.3135 c 0.88772,0.8864 2.07471,0.8056 2.84375,0.094 0.76904,-0.7118 0.80553,-2.0437 0.0937,-2.8128 L 52,1026.5863 l 0,-7.2194 -4,0 z"  stroke="none" marker="none" visibility="visible" display="inline" overflow="visible"/></g></svg>