<svg xmlns="http://www.w3.org/2000/svg" xmlns:xlink="http://www.w3.org/1999/xlink" xmlns:serif="http://www.serif.com/" viewBox="0 0 24 30" version="1.1" xml:space="preserve" style="" x="0px" y="0px" fill-rule="evenodd" clip-rule="evenodd" stroke-linejoin="round" stroke-miterlimit="1.41421"><rect x="0" y="0.021" width="24" height="24" style="" fill="none"/><path fill="#ED671E" d="M9.373,8.226c-0.041,-0.482 -0.02,-0.973 0.066,-1.463c0.473,-2.686 2.794,-4.636 5.518,-4.636c0.326,0 0.655,0.028 0.979,0.086c3.045,0.536 5.087,3.451 4.551,6.496c-0.211,1.198 -0.79,2.25 -1.607,3.047l0,8.322c0,1.015 -0.823,1.837 -1.837,1.837l-11.416,0l0,-6.555c-2.024,-0.141 -3.69,-1.644 -4.02,-3.677c-0.389,-2.391 1.24,-4.652 3.631,-5.041c0.234,-0.038 0.473,-0.057 0.709,-0.057c1.378,0 2.618,0.63 3.426,1.641Zm13.077,11.153l-2.847,-1.836l0,-3.822l2.847,-1.837l0,7.495Zm-16.503,-12.274c-0.208,0 -0.419,0.017 -0.626,0.051c-2.107,0.343 -3.543,2.336 -3.2,4.443c0.306,1.884 1.911,3.251 3.817,3.251c0.208,0 0.418,-0.018 0.626,-0.051c2.107,-0.343 3.542,-2.336 3.2,-4.443c-0.306,-1.884 -1.912,-3.251 -3.817,-3.251Zm9.01,-4.458c-2.471,0 -4.576,1.769 -5.005,4.206c-0.236,1.339 0.064,2.69 0.844,3.803c0.779,1.113 1.946,1.856 3.284,2.091c0.294,0.052 0.593,0.078 0.889,0.078c2.471,0 4.576,-1.769 5.005,-4.206c0.486,-2.763 -1.366,-5.407 -4.129,-5.894c-0.294,-0.051 -0.593,-0.078 -0.888,-0.078Zm-9.014,7.045c-0.068,0 -0.137,0.005 -0.207,0.017c-0.701,0.113 -1.177,0.774 -1.062,1.475c0.102,0.63 0.647,1.079 1.266,1.079c0.069,0 0.139,-0.006 0.209,-0.017c0.7,-0.114 1.176,-0.774 1.062,-1.475c-0.103,-0.63 -0.648,-1.079 -1.268,-1.079Zm0,0.52c0.377,0 0.694,0.271 0.754,0.643c0.033,0.202 -0.015,0.404 -0.134,0.569c-0.119,0.166 -0.296,0.275 -0.498,0.308c-0.042,0.007 -0.084,0.01 -0.125,0.01c-0.376,0 -0.692,-0.27 -0.753,-0.641c-0.032,-0.202 0.015,-0.405 0.135,-0.571c0.119,-0.165 0.296,-0.275 0.497,-0.307c0.042,-0.007 0.083,-0.011 0.124,-0.011Zm9.02,-3.761c-0.613,0 -1.157,0.438 -1.266,1.063c-0.123,0.699 0.343,1.366 1.043,1.489c0.075,0.013 0.15,0.019 0.223,0.019c0.613,0 1.156,-0.439 1.266,-1.063c0.123,-0.699 -0.345,-1.366 -1.043,-1.489c-0.075,-0.013 -0.149,-0.019 -0.223,-0.019Zm0,0.52c0.045,0 0.089,0.004 0.132,0.011c0.416,0.074 0.694,0.472 0.621,0.887c-0.064,0.367 -0.381,0.633 -0.753,0.633c-0.044,0 -0.089,-0.004 -0.133,-0.012c-0.201,-0.035 -0.376,-0.147 -0.494,-0.314c-0.117,-0.168 -0.162,-0.371 -0.126,-0.573c0.064,-0.366 0.381,-0.632 0.753,-0.632Z" style=""/></svg>