<svg xmlns:dc="http://purl.org/dc/elements/1.1/" xmlns:cc="http://creativecommons.org/ns#" xmlns:rdf="http://www.w3.org/1999/02/22-rdf-syntax-ns#" xmlns:svg="http://www.w3.org/2000/svg" xmlns="http://www.w3.org/2000/svg" xmlns:sodipodi="http://sodipodi.sourceforge.net/DTD/sodipodi-0.dtd" xmlns:inkscape="http://www.inkscape.org/namespaces/inkscape" viewBox="0 0 16.933332 21.166665000000002" version="1.1" x="0px" y="0px"><g transform="translate(81.64286,-139.45952)"><path style="fill:#ED671E;color:#000000;font-style:normal;font-variant:normal;font-weight:normal;font-stretch:normal;font-size:medium;line-height:normal;font-family:sans-serif;font-variant-ligatures:normal;font-variant-position:normal;font-variant-caps:normal;font-variant-numeric:normal;font-variant-alternates:normal;font-feature-settings:normal;text-indent:0;text-align:start;text-decoration:none;text-decoration-line:none;text-decoration-style:solid;text-decoration-color:#000000;letter-spacing:normal;word-spacing:normal;text-transform:none;writing-mode:lr-tb;direction:ltr;text-orientation:mixed;dominant-baseline:auto;baseline-shift:baseline;text-anchor:start;white-space:normal;shape-padding:0;clip-rule:nonzero;display:inline;overflow:visible;visibility:visible;opacity:1;isolation:auto;mix-blend-mode:normal;color-interpolation:sRGB;color-interpolation-filters:linearRGB;solid-color:#000000;solid-opacity:1;vector-effect:none;fill-opacity:1;fill-rule:nonzero;stroke:none;stroke-width:0.52916664;stroke-linecap:round;stroke-linejoin:round;stroke-miterlimit:4;stroke-dasharray:none;stroke-dashoffset:0;stroke-opacity:1;paint-order:normal;color-rendering:auto;image-rendering:auto;shape-rendering:auto;text-rendering:auto;enable-background:accumulate" d="m -77.514516,140.51785 c -1.696944,0 -3.070014,1.37507 -3.070014,3.07201 v 8.67416 c 0,1.69694 1.37307,3.0705 3.070014,3.0705 h 8.674651 c 1.696944,0 3.072007,-1.37356 3.072007,-3.0705 v -8.67416 c 0,-1.69694 -1.375063,-3.07201 -3.072007,-3.07201 z m 0,0.51092 h 8.674651 c 1.422733,0 2.560576,1.13837 2.560576,2.56109 v 8.67416 c 0,1.42272 -1.137843,2.55908 -2.560576,2.55908 h -8.674651 c -1.422732,0 -2.559094,-1.13636 -2.559094,-2.55908 v -8.67416 c 0,-1.42272 1.136362,-2.56109 2.559094,-2.56109 z m -0.841229,0.8542 c -0.221101,0 -0.442814,0.0865 -0.610702,0.25446 -0.335521,0.3355 -0.335521,0.8869 0,1.22241 l 0.991899,0.98991 -0.991899,0.9919 c -0.33565,0.33563 -0.33565,0.88829 0,1.22391 0.335622,0.33564 0.886267,0.33564 1.221915,0 l 0.991899,-0.9919 0.9919,0.9919 c 0.335649,0.33564 0.886292,0.33564 1.221915,0 0.335649,-0.33562 0.335649,-0.88828 0,-1.22391 l -0.991899,-0.9899 0.991899,-0.99191 c 0.335522,-0.33551 0.335522,-0.88691 0,-1.22241 -0.335623,-0.33563 -0.886267,-0.33563 -1.221915,0 l -0.9919,0.9904 -0.991899,-0.9904 c -0.167634,-0.16763 -0.390088,-0.25446 -0.611213,-0.25446 z m 7.152877,0 c -0.221101,0 -0.442815,0.0865 -0.610703,0.25446 -0.335521,0.3355 -0.335521,0.8869 0,1.22241 l 0.989907,0.98991 -0.989907,0.9919 c -0.335648,0.33563 -0.335648,0.88829 0,1.22391 0.335624,0.33564 0.886267,0.33564 1.221915,0 l 0.9919,-0.9919 0.9919,0.9919 c 0.335649,0.33564 0.886292,0.33564 1.221915,0 0.335623,-0.33562 0.335623,-0.88828 0,-1.22391 l -0.989907,-0.9919 0.989907,-0.98991 c 0.335497,-0.33551 0.335497,-0.88691 0,-1.22241 -0.335623,-0.33563 -0.886267,-0.33563 -1.221915,0 l -0.9919,0.9904 -0.9919,-0.9904 c -0.167632,-0.16762 -0.390086,-0.25446 -0.611212,-0.25446 z m -3.947648,0.50842 c 0.08951,0 0.178618,0.0354 0.249457,0.10627 0.141857,0.14184 0.141857,0.35812 0,0.49995 l -1.171003,1.17302 a 0.25548543,0.25548543 0 0 0 0,0.36023 l 1.171003,1.17303 c 0.14173,0.1417 0.14173,0.35774 0,0.49944 -0.141678,0.14171 -0.35772,0.14171 -0.499424,0 l -1.171027,-1.17103 a 0.25548543,0.25548543 0 0 0 -0.362243,0 l -1.171029,1.17103 c -0.141704,0.14171 -0.359739,0.14171 -0.501441,0 -0.141678,-0.1417 -0.141678,-0.35774 0,-0.49944 l 1.173019,-1.17303 a 0.25548543,0.25548543 0 0 0 0,-0.36023 l -1.173019,-1.17302 c -0.141806,-0.14183 -0.141806,-0.35812 0,-0.49995 0.07079,-0.0708 0.160095,-0.10328 0.250478,-0.10328 v -5.1e-4 c 0.09038,0 0.179946,0.0328 0.250963,0.10378 l 1.171029,1.17102 a 0.25548543,0.25548543 0 0 0 0.362243,0.002 l 1.171027,-1.17301 c 0.07084,-0.0709 0.160454,-0.10629 0.249967,-0.10629 z m 7.152366,0 c 0.08951,0 0.179129,0.0354 0.249968,0.10627 0.14183,0.14183 0.14183,0.35812 0,0.49995 l -1.171002,1.17302 a 0.25548543,0.25548543 0 0 0 0,0.36023 l 1.171002,1.17303 c 0.141703,0.1417 0.141703,0.35774 0,0.49944 -0.141705,0.14171 -0.357721,0.14171 -0.499425,0 l -1.171028,-1.17103 a 0.25548543,0.25548543 0 0 0 -0.362242,0 l -1.171028,1.17103 c -0.141704,0.1417 -0.360224,0.1417 -0.501928,0 -0.141704,-0.1417 -0.141704,-0.35774 0,-0.49944 l 1.173021,-1.17303 a 0.25548543,0.25548543 0 0 0 0,-0.36023 l -1.173021,-1.17302 c -0.141831,-0.14183 -0.141831,-0.35812 0,-0.49995 0.07076,-0.0708 0.160582,-0.10328 0.250964,-0.10328 v -5.1e-4 c 0.09038,0 0.17992,0.0328 0.250964,0.10378 l 1.171028,1.17102 a 0.25548543,0.25548543 0 0 0 0.362242,0.002 l 1.171028,-1.17301 c 0.07084,-0.0709 0.159969,-0.10629 0.249456,-0.10629 z m -5.198506,7.10647 c -0.603243,0.003 -1.205643,0.12399 -1.749287,0.36223 -1.087288,0.47651 -1.790595,1.37777 -1.774756,2.37948 a 0.25548543,0.25548543 0 0 0 0.230016,0.25496 0.25548543,0.25548543 0 0 0 0.280903,-0.26245 c -0.01201,-0.75705 0.522696,-1.48959 1.469406,-1.90447 0.946683,-0.41493 2.14272,-0.42025 3.096428,-0.0134 0.953735,0.40676 1.500827,1.1344 1.500827,1.89149 a 0.25551942,0.25551942 0 1 0 0.51092,0 c 0,-1.00179 -0.715951,-1.89582 -1.810163,-2.3625 -0.547093,-0.23333 -1.151025,-0.34828 -1.754294,-0.34527 z"/></g></svg>