<svg xmlns="http://www.w3.org/2000/svg" data-name="Layer 1" viewBox="0 0 100 125" x="0px" y="0px"><title>aaa</title><path fill="#ED671E" d="M93.51915,27.1563a2.2745,2.2745,0,0,0-2.11985.27,9.96726,9.96726,0,0,1-6.77-2.8,8.00317,8.00317,0,0,1-.94017-1.23l4.70014-12.35993A2.30523,2.30523,0,0,0,86.2492,7.92651H33.84981c-3.33,0-6.13006,2.61-7.33,6.41992L6.15014,67.87593A15.5438,15.5438,0,0,0,5,73.47585a12.69914,12.69914,0,0,0,3.38009,8.82993,12.98193,12.98193,0,0,0,6.49481,3.6116V81.15681a7.95241,7.95241,0,0,1-3.175-2.011,7.69179,7.69179,0,0,1-1.86913-3.55319h9.0441V91.18887a.88286.88286,0,0,0,1.51366.61767l4.36129-4.45412,4.36128,4.45412a.88286.88286,0,0,0,1.51366-.61767V75.59265H58.02243a11.91851,11.91851,0,0,0,2.957,6.26312H34.62471v4.58H71.83943a2.28446,2.28446,0,0,0,2.13987-1.47l20.86991-54.8495A2.2921,2.2921,0,0,0,93.51915,27.1563ZM57.90085,72.59268H9.62251a9.64071,9.64071,0,0,1,.54736-2.41678l.03-.07c.63012-1.62,1.67015-2.75,2.78-2.75H59.29951A12.79814,12.79814,0,0,0,57.90085,72.59268Zm12.35852,9.26309h-2.28a8.75719,8.75719,0,0,1-4.21993-2.38993,8.63249,8.63249,0,0,1-2.24-5.99c0-2.69992,1.07006-5.1399,2.49-6.11993h1.36009a2.32739,2.32739,0,0,0,.53-.06,2.07019,2.07019,0,0,0,.32983-.1c.05-.02.10009-.05.15014-.07a2.26,2.26,0,0,0,1.13988-1.25L82.17917,27.35631a13.05645,13.05645,0,0,0,7.46013,3.54995Z"/></svg>