<svg xmlns="http://www.w3.org/2000/svg" xmlns:xlink="http://www.w3.org/1999/xlink" xml:space="preserve"
  style="shape-rendering:geometricPrecision;text-rendering:geometricPrecision;image-rendering:optimizeQuality;"
  viewBox="0 0 13.3333 16.666625" x="0px" y="0px" fill-rule="evenodd" clip-rule="evenodd">
  <defs>
    <style type="text/css">
      .fil1 {
        fill: none
      }

      .fil0 {
        fill: #f39a69;
        fill-rule: nonzero
      }
    </style>
  </defs>
  <g>
    <g>
      <path  class="fil0"
        d="M4.58641 3.44532c0.319819,-0.319819 0.738992,-0.479732 1.15816,-0.479732 0.419161,0 0.838339,0.159913 1.15816,0.479732 0.319819,0.319819 0.479732,0.738992 0.479732,1.15816 0,0.419161 -0.159913,0.838339 -0.479732,1.15816 -0.319819,0.319819 -0.738996,0.479732 -1.15816,0.479732 -0.419165,0 -0.838339,-0.159913 -1.15816,-0.479732 -0.319819,-0.319819 -0.479732,-0.738996 -0.479732,-1.15816 0,-0.419165 0.159913,-0.838339 0.479732,-1.15816zm1.15816 -0.319732c-0.378232,0 -0.756461,0.144287 -1.04503,0.432858 -0.288571,0.288571 -0.432858,0.666799 -0.432858,1.04503 0,0.378228 0.144287,0.756461 0.432858,1.04503 0.288571,0.288571 0.666799,0.432858 1.04503,0.432858 0.378228,0 0.756461,-0.144287 1.04503,-0.432858 0.288571,-0.288571 0.432858,-0.666803 0.432858,-1.04503 0,-0.378232 -0.144287,-0.756461 -0.432858,-1.04503 -0.288571,-0.288571 -0.666803,-0.432858 -1.04503,-0.432858z" />
      <path  class="fil0"
        d="M7.02534 6.4487l0.56474 -0.56474 -3.93701e-006 -3.93701e-006c0.0312402,-0.0312402 0.0818937,-0.0312402 0.113134,0l0.000287402 0.000295276 1.48888 1.48888 7.87402e-006 7.87402e-006 3.93701e-006 -3.93701e-006c0.00245669,0.00245669 0.00472047,0.00503937 0.00679134,0.00771654 0.0183189,0.0217205 0.0274843,0.0484843 0.0274843,0.0751417 0,0.0297795 -0.0114331,0.059685 -0.0342795,0.0825433l-0.0326614 -0.0324803 -9.05512e-005 2.75591e-005 0.0327717 0.032752 -0.000326772 0.000318898 -0.51213 0.512134c-0.0228504,0.0228504 -0.0528937,0.0342874 -0.0828622,0.0342874 -0.0297795,0 -0.059689,-0.0114331 -0.0825551,-0.0342874l0.056252 -0.056563 -0.0565512 0.0565827 -0.000318898 -0.000326772 -1.48886 -1.48886 -3.93701e-006 3.93701e-006c-0.0312402,-0.0312402 -0.0312402,-0.0818937 0,-0.113134l0.000295276 -0.000287402zm0.621303 -0.395051l-0.451906 0.451906 1.40234 1.40234 0.451906 -0.451906 -1.40234 -1.40234z" />
      <path  class="fil0"
        d="M6.92372 5.70803c-0.0312362,-0.0312362 -0.0818898,-0.0312362 -0.113126,0 -0.0312362,0.0312362 -0.0312362,0.0818898 0,0.113126l0.477709 0.477713c0.0312362,0.0312362 0.0818898,0.0312362 0.113126,0 0.0312362,-0.0312362 0.0312362,-0.0818898 0,-0.113126l-0.477709 -0.477713z" />
    </g>
    <g>
      <path  class="fil0"
        d="M1.78722 1.74345l9.75888 0c0.146906,0 0.280402,0.0600433 0.377126,0.156768 0.0967244,0.0967244 0.156768,0.23022 0.156768,0.377126l0 7.31917c0,0.146906 -0.0600433,0.280402 -0.156768,0.377126 -0.0967244,0.0967244 -0.23022,0.156768 -0.377126,0.156768l-9.75888 0c-0.146906,0 -0.280402,-0.0600433 -0.377126,-0.156768 -0.0967244,-0.0967244 -0.156768,-0.23022 -0.156768,-0.377126l0 -7.31917c0,-0.146906 0.0600433,-0.280402 0.156768,-0.377126 0.0967244,-0.0967244 0.23022,-0.156768 0.377126,-0.156768zm9.75888 0.16l-9.75888 0c-0.102736,0 -0.196197,0.0420906 -0.264,0.109894 -0.0678031,0.0678031 -0.109894,0.161264 -0.109894,0.264l0 7.31917c0,0.102736 0.0420906,0.196197 0.109894,0.264 0.0678031,0.0678031 0.161264,0.109894 0.264,0.109894l9.75888 0c0.102736,0 0.196197,-0.0420906 0.264,-0.109894 0.0678031,-0.0678031 0.109894,-0.161264 0.109894,-0.264l0 -7.31917c0,-0.102736 -0.0420906,-0.196197 -0.109894,-0.264 -0.0678031,-0.0678031 -0.161264,-0.109894 -0.264,-0.109894z" />
      <path  class="fil0"
        d="M1.78723 2.17919l9.75887 0c0.0270591,0 0.0516417,0.0110236 0.0693898,0.0287717 0.017748,0.017748 0.0287717,0.042311 0.0287717,0.0693858l0 6.49647c0,0.027063 -0.0110236,0.0516339 -0.0287717,0.0693819l-0.000311024 0c-0.0177677,0.0177441 -0.0422205,0.0287717 -0.0690787,0.0287717l-9.75887 0c-0.0270591,0 -0.0516417,-0.0110236 -0.0693898,-0.0287717l0.00015748 -0.00015748c-0.0178465,-0.0179016 -0.0289291,-0.0424173 -0.0289291,-0.0692244l0 -6.49647c0,-0.0270748 0.0110236,-0.0516378 0.0287717,-0.0693858 0.017748,-0.017748 0.0423071,-0.0287717 0.0693898,-0.0287717zm9.69703 0.16l-9.63519 0 0 6.37278 9.63519 0 0 -6.37278z" />
      <path  class="fil0"
        d="M6.66666 9.14261c0.0769213,0 0.146571,0.031189 0.196984,0.0815984 0.0504134,0.0504134 0.0815984,0.120063 0.0815984,0.196984 0,0.0769213 -0.031185,0.146571 -0.0815984,0.196984 -0.0504134,0.0504134 -0.120063,0.0815984 -0.196984,0.0815984 -0.0769213,0 -0.146571,-0.031185 -0.196984,-0.0815984 -0.0504134,-0.0504134 -0.0815984,-0.120063 -0.0815984,-0.196984 0,-0.0769213 0.031185,-0.146571 0.0815984,-0.196984 0.0504134,-0.0504094 0.120063,-0.0815984 0.196984,-0.0815984zm0.0838583 0.194724c-0.0214528,-0.0214488 -0.0511063,-0.0347244 -0.0838583,-0.0347244 -0.032752,0 -0.0624055,0.0132756 -0.0838583,0.0347244 -0.0214528,0.0214528 -0.0347244,0.0511063 -0.0347244,0.0838583 0,0.032752 0.0132717,0.0624055 0.0347244,0.0838583 0.0214528,0.0214528 0.0511063,0.0347244 0.0838583,0.0347244 0.032752,0 0.0624055,-0.0132717 0.0838583,-0.0347244 0.0214528,-0.0214528 0.0347244,-0.0511063 0.0347244,-0.0838583 0,-0.032752 -0.0132717,-0.0624055 -0.0347244,-0.0838583z" />
      <path  class="fil0"
        d="M5.36854 9.97041l2.59624 0 0.08 0 0 0.08 0 0.95828 0 0.08 -0.08 0 -2.59624 0 -0.08 0 0 -0.08 0 -0.95828 0 -0.08 0.08 0zm2.51624 0.16l-2.43624 0 0 0.79828 2.43624 0 0 -0.79828z" />
      <path  class="fil0"
        d="M4.11551 11.4299l5.1023 0 0 -0.341193 -5.1023 0 0 0.341193zm5.1823 0.16l-5.2623 0c-0.0441811,0 -0.08,-0.0358189 -0.08,-0.08l0 -0.501193c0,-0.0441811 0.0358189,-0.08 0.08,-0.08l5.2623 0c0.0441811,0 0.08,0.0358189 0.08,0.08l0 0.501193c0,0.0441811 -0.0358189,0.08 -0.08,0.08z" />
    </g>
  </g>
  <rect class="fil1" width="13.3333" height="13.3333" />
</svg>