<svg xmlns="http://www.w3.org/2000/svg" xmlns:xlink="http://www.w3.org/1999/xlink" version="1.1" x="0px" y="0px" viewBox="0 0 50 62.5" enable-background="new 0 0 50 50" xml:space="preserve">
	<style type="text/css">
 rect { fill:#ED671E}
</style><g><g><g><path fill="#ED671E"  d="M48.2395,30.4465L15.961,30.4465c-0.4225,0-0.7604,0.338-0.7604,0.7604l-0.0001,8.1119     c0,0.4224,0.338,0.7605,0.7605,0.7605l32.2785-0.0001c0.4225,0,0.7605-0.338,0.7605-0.7605V31.207     C49,30.7845,48.662,30.4465,48.2395,30.4465z M40.5501,38.3232c0,0.1921-0.1557,0.3478-0.3478,0.3478l-23.2456,0.0001     c-0.1921,0-0.3478-0.1558-0.3478-0.3478v-6.1205c0-0.1921,0.1558-0.3478,0.3478-0.3478l23.2456-0.0001     c0.1921,0,0.3478,0.1558,0.3478,0.3478V38.3232z M44.6624,37.4755c-1.224,0-2.2126-0.9886-2.2126-2.2126     c0-1.2173,0.9886-2.2126,2.2126-2.2126c1.2173,0,2.2127,0.9954,2.2127,2.2126C46.8751,36.4869,45.8797,37.4755,44.6624,37.4755z"/></g><g><rect x="17.912" y="32.6115" width="0.9858" height="5.3029"/></g><g><rect x="20.1821" y="32.6115" width="0.9858" height="5.3029"/></g><g><rect x="22.4522" y="32.6115" width="0.9858" height="5.3029"/></g><g><rect x="24.7222" y="32.6115" width="0.9858" height="5.3029"/></g><g><rect x="26.9923" y="32.6115" width="0.9858" height="5.3029"/></g><g><rect x="29.2624" y="32.6115" width="0.9858" height="5.3029"/></g><g><rect x="31.5325" y="32.6115" width="0.9858" height="5.3029"/></g><g><rect x="33.8026" y="32.6115" width="0.9858" height="5.3029"/></g><g><rect x="36.0726" y="32.6115" width="0.9858" height="5.3029"/></g><g><rect x="38.3427" y="32.6115" width="0.9858" height="5.3029"/></g><g><path fill="#ED671E"  d="M48.2395,20.1341H15.961c-0.4225,0-0.7604,0.338-0.7604,0.7605v8.1119c0,0.4225,0.338,0.7605,0.7604,0.7605     l32.2785-0.0001c0.4225,0,0.7605-0.338,0.7605-0.7605v-8.1119C49,20.472,48.662,20.1341,48.2395,20.1341z M40.5501,28.0107     c0,0.1921-0.1557,0.3479-0.3478,0.3479H16.9567c-0.1921,0-0.3478-0.1558-0.3478-0.3478v-6.1205     c0-0.1921,0.1558-0.3478,0.3478-0.3478h23.2456c0.1921,0,0.3478,0.1557,0.3478,0.3478V28.0107z M44.6624,27.1632     c-1.224,0-2.2126-0.9886-2.2126-2.2126c0-1.2173,0.9886-2.2126,2.2126-2.2126c1.2173,0,2.2127,0.9953,2.2127,2.2126     C46.8751,26.1745,45.8797,27.1632,44.6624,27.1632z"/></g><g><rect x="17.912" y="22.2991" width="0.9858" height="5.3029"/></g><g><rect x="20.1821" y="22.2991" width="0.9858" height="5.3029"/></g><g><rect x="22.4522" y="22.2991" width="0.9858" height="5.3029"/></g><g><rect x="24.7222" y="22.2991" width="0.9858" height="5.3029"/></g><g><rect x="26.9923" y="22.2991" width="0.9858" height="5.3029"/></g><g><rect x="29.2624" y="22.2991" width="0.9858" height="5.3029"/></g><g><rect x="31.5325" y="22.2991" width="0.9858" height="5.3029"/></g><g><rect x="33.8026" y="22.2991" width="0.9858" height="5.3029"/></g><g><rect x="36.0726" y="22.2991" width="0.9858" height="5.3029"/></g><g><rect x="38.3427" y="22.2991" width="0.9858" height="5.3029"/></g><g><path fill="#ED671E"  d="M48.2395,9.7545H15.961c-0.4225,0-0.7604,0.338-0.7604,0.7605v8.1119c0,0.4225,0.338,0.7605,0.7604,0.7605     l32.2785-0.0001c0.4225,0,0.7605-0.338,0.7605-0.7605v-8.1119C49,10.0924,48.662,9.7545,48.2395,9.7545z M40.5477,17.6324     c0,0.1877-0.1516,0.3465-0.3466,0.3465H16.9548c-0.1877,0-0.3466-0.1588-0.3466-0.3465v-6.122     c0-0.1949,0.1589-0.3466,0.3466-0.3466h23.2463c0.1949,0,0.3466,0.1516,0.3466,0.3466V17.6324z M44.6624,16.7835     c-1.224,0-2.2126-0.9886-2.2126-2.2126c0-1.2173,0.9886-2.2126,2.2126-2.2126c1.2173,0,2.2127,0.9953,2.2127,2.2126     C46.8751,15.7949,45.8797,16.7835,44.6624,16.7835z"/></g><g><rect x="17.912" y="11.9194" width="0.9858" height="5.3029"/></g><g><rect x="20.1821" y="11.9194" width="0.9858" height="5.3029"/></g><g><rect x="22.4522" y="11.9194" width="0.9858" height="5.3029"/></g><g><rect x="24.7222" y="11.9194" width="0.9858" height="5.3029"/></g><g><rect x="26.9923" y="11.9195" width="0.9858" height="5.3029"/></g><g><rect x="29.2624" y="11.9194" width="0.9858" height="5.3029"/></g><g><rect x="31.5325" y="11.9194" width="0.9858" height="5.3029"/></g><g><rect x="33.8026" y="11.9194" width="0.9858" height="5.3029"/></g><g><rect x="36.0726" y="11.9194" width="0.9858" height="5.3029"/></g><g><rect x="38.3427" y="11.9194" width="0.9858" height="5.3029"/></g><g><path fill="#ED671E" d="M13.0988,10.8359L6.0424,9.7623c-0.3675-0.0559-0.7062,0.1934-0.7622,0.5609L1.0078,38.4018     c-0.0559,0.3675,0.1934,0.7063,0.5609,0.7622l7.0564,1.0737c0.3675,0.0559,0.7062-0.1934,0.7621-0.5609l4.2723-28.0787     C13.7155,11.2306,13.4663,10.8919,13.0988,10.8359z M7.5958,36.2205c-0.1611,1.0589-1.1587,1.793-2.2176,1.6319     c-1.0648-0.162-1.793-1.1587-1.6319-2.2177c0.162-1.0648,1.1529-1.7939,2.2177-1.6319     C7.0228,34.1639,7.7578,35.1557,7.5958,36.2205z M9.226,32.4989c-0.0255,0.1671-0.1815,0.282-0.3486,0.2565l-5.3242-0.8101     c-0.1671-0.0255-0.2819-0.1815-0.2565-0.3486l3.0768-20.2211c0.0254-0.1671,0.1815-0.282,0.3486-0.2565l5.3241,0.8101     c0.1671,0.0255,0.282,0.1815,0.2566,0.3486L9.226,32.4989z"/></g><g><rect x="6.8134" y="12.6529" transform="matrix(-0.9886 -0.1504 0.1504 -0.9886 16.2204 27.4)" width="4.666" height="0.8674"/></g><g><rect x="6.513" y="14.6275" transform="matrix(-0.9886 -0.1504 0.1504 -0.9886 15.3256 31.2818)" width="4.666" height="0.8675"/></g><g><rect x="6.2125" y="16.6023" transform="matrix(-0.9886 -0.1504 0.1504 -0.9886 14.4313 35.1635)" width="4.6659" height="0.8674"/></g><g><rect x="5.9121" y="18.577" transform="matrix(-0.9886 -0.1504 0.1504 -0.9886 13.5364 39.0453)" width="4.666" height="0.8674"/></g><g><rect x="5.6116" y="20.5516" transform="matrix(-0.9886 -0.1504 0.1504 -0.9886 12.6419 42.9271)" width="4.666" height="0.8675"/></g><g><rect x="5.3111" y="22.5264" transform="matrix(-0.9886 -0.1504 0.1504 -0.9886 11.7477 46.8088)" width="4.666" height="0.8674"/></g><g><rect x="5.0107" y="24.501" transform="matrix(-0.9886 -0.1504 0.1504 -0.9886 10.8528 50.6905)" width="4.666" height="0.8675"/></g><g><rect x="4.7102" y="26.4758" transform="matrix(-0.9886 -0.1504 0.1504 -0.9886 9.9586 54.5723)" width="4.6659" height="0.8674"/></g><g><rect x="4.4097" y="28.4505" transform="matrix(-0.9886 -0.1504 0.1504 -0.9886 9.064 58.4541)" width="4.6659" height="0.8674"/></g><g><rect x="4.1092" y="30.4252" transform="matrix(-0.9886 -0.1504 0.1504 -0.9886 8.1691 62.3358)" width="4.666" height="0.8675"/></g></g></g></svg>