<svg xmlns="http://www.w3.org/2000/svg" xmlns:xlink="http://www.w3.org/1999/xlink" version="1.1" x="0px" y="0px" viewBox="0 0 48 60" enable-background="new 0 0 48 48" xml:space="preserve"><g><path fill="#ED671E" d="M24,26.9c5.9,0,10.6-6,10.6-13.5C34.6,6,29.9,0,24,0c-5.9,0-10.6,6-10.6,13.5C13.4,20.9,18.1,26.9,24,26.9z M24,24.9   c-3.9,0-7.2-3.9-8.4-9.3h1.7c0.3,0.6,0.9,1,1.6,1h2.2c0.7,0,1.3-0.4,1.6-1h2.7c0.3,0.6,0.9,1,1.6,1h2.2c0.7,0,1.3-0.4,1.6-1h1.7   C31.2,21,27.9,24.9,24,24.9z M15.2,11.4c0,0,3.3,0.4,3.8-3.6c0,0,5.1,3.9,10.6,0c0,0,0.8,3.1,3.3,3.6v0c0,0.9-0.1,1.7-0.2,2.6h-2   c-0.3-0.6-0.9-1-1.6-1h-2.2c-0.7,0-1.3,0.4-1.6,1h-2.7c-0.3-0.6-0.9-1-1.6-1h-2.2c-0.7,0-1.3,0.4-1.6,1h-2   C15.2,13.1,15.2,12.3,15.2,11.4L15.2,11.4z"/><path fill="#ED671E" d="M34.7,26.7c0,0-0.8,0-1-0.1l-6.1,18.1L25.3,32h-2.7l-2.2,12.7l-6.1-18.1c-0.2,0-1,0.1-1,0.1c-4.6,0-8.3,3.7-8.3,8.3v7   c1.3,0.9,2.7,1.8,4.1,2.5c6.2,3.4,15,3.4,15,3.4c5.7,0,11.3-1.3,16.2-4.2c0.9-0.5,1.8-1.1,2.7-1.8v-7C43,30.5,39.3,26.7,34.7,26.7z   "/></g></svg>