<svg xmlns="http://www.w3.org/2000/svg" data-name="Layer 1" viewBox="0 0 96 120" x="0px" y="0px"><title>Artboard 68</title><path d="M94,15.5H2a2.0001,2.0001,0,0,0-2,2v54a2.0001,2.0001,0,0,0,2,2H42v2.89441a45.12864,45.12864,0,0,0-9.24023,2.16516c-1.50391.5332-6.49512,2.438-7.54883,4.54639a2.00008,2.00008,0,0,0,3.50488,1.92187,17.60282,17.60282,0,0,1,5.38184-2.69873,42.65591,42.65591,0,0,1,27.80468,0,17.60282,17.60282,0,0,1,5.38184,2.69873A2.00008,2.00008,0,0,0,70.78906,83.106c-1.05371-2.1084-6.04492-4.01319-7.54883-4.54639A45.12864,45.12864,0,0,0,54,76.39441V73.5H94a2.0001,2.0001,0,0,0,2-2v-54A2.0001,2.0001,0,0,0,94,15.5Z"/></svg>