<svg xmlns="http://www.w3.org/2000/svg" xmlns:xlink="http://www.w3.org/1999/xlink" version="1.1" x="0px" y="0px" viewBox="0 0 90 112.5" enable-background="new 0 0 90 90" xml:space="preserve"><path fill="#ED671E" d="M45,28.4c-14.5,0-26.8,13-30,16.6c3.2,3.7,15.6,16.6,30,16.6s26.8-13,30-16.6C71.8,41.3,59.5,28.4,45,28.4z M45,59.7  c-8.1,0-14.7-6.6-14.7-14.7S36.9,30.3,45,30.3S59.7,36.9,59.7,45S53.1,59.7,45,59.7z"/><path fill="#ED671E" d="M45,39.3c-3.1,0-5.7,2.5-5.7,5.7c0,3.1,2.5,5.7,5.7,5.7s5.7-2.5,5.7-5.7C50.7,41.9,48.1,39.3,45,39.3z"/><path fill="#ED671E" d="M45,33.3c-6.4,0-11.7,5.2-11.7,11.7S38.6,56.7,45,56.7S56.7,51.4,56.7,45S51.4,33.3,45,33.3z M45,53.7  c-4.8,0-8.7-3.9-8.7-8.7s3.9-8.7,8.7-8.7s8.7,3.9,8.7,8.7S49.8,53.7,45,53.7z"/></svg>